#!OML:ASF F:\VICON\USERDATA\INSTALL\rory3\rory3.ASF
:FULLY-SPECIFIED
:DEGREES
60
root 1.17519 17.686 0.0553685 14.2117 0.893455 -3.75883
lowerback -10.7204 -0.72469 6.78902
upperback -6.11042 -1.58295 1.59524
thorax -0.529897 -0.94013 -2.30878
lowerneck -15.1291 -1.92508 -6.82122
upperneck 25.2844 -1.73073 3.01743
head 10.7246 -1.09101 2.00445
rclavicle -9.31803e-016 8.34896e-015
rhumerus -43.4754 -4.11467 -76.3433
rradius 37.192
rwrist 2.61034
rhand -19.2323 -48.8138
rfingers 7.12502
rthumb 7.08087 -78.6754
lclavicle -9.31803e-016 8.34896e-015
lhumerus -39.2229 8.59749 78.5596
lradius 32.9808
lwrist 16.7416
lhand -34.3657 -28.666
lfingers 7.12502
lthumb -7.53254 1.17988
rfemur -6.77494 18.8628 14.0737
rtibia 2.15104
rfoot -4.00353 -34.6637
rtoes 1.78189
lfemur -15.9124 -12.1351 -7.02231
ltibia 13.7068
lfoot -7.85961 24.1622
ltoes -0.0316418
61
root 1.17663 17.6864 0.0569242 14.2457 0.913313 -3.74855
lowerback -10.7499 -0.737211 6.79655
upperback -6.10964 -1.60283 1.59963
thorax -0.514965 -0.949727 -2.311
lowerneck -15.1538 -1.89615 -6.87007
upperneck 25.275 -1.69305 3.08616
head 10.7247 -1.06982 2.04264
rclavicle -8.08805e-015 1.94809e-014
rhumerus -43.4018 -4.05211 -76.3542
rradius 37.224
rwrist 2.47365
rhand -19.2388 -49.1335
rfingers 7.12502
rthumb 7.07463 -78.9952
lclavicle -8.08805e-015 1.94809e-014
lhumerus -39.2114 8.67695 78.5234
lradius 32.9646
lwrist 16.7161
lhand -34.2498 -28.5368
lfingers 7.12502
lthumb -7.42072 1.31301
rfemur -6.71416 18.8237 14.0622
rtibia 2.01424
rfoot -3.93347 -34.6426
rtoes 1.64462
lfemur -15.9601 -12.1128 -7.03379
ltibia 13.7092
lfoot -7.75407 24.1921
ltoes -0.692651
62
root 1.17617 17.6876 0.0566781 14.2607 0.897113 -3.70997
lowerback -10.7369 -0.732344 6.73458
upperback -6.13295 -1.5885 1.5947
thorax -0.54296 -0.942456 -2.27951
lowerneck -15.0641 -1.8844 -6.93259
upperneck 25.2621 -1.68661 3.16087
head 10.7031 -1.06428 2.08119
rclavicle 3.13086e-015 -1.43125e-014
rhumerus -43.3865 -4.09391 -76.3062
rradius 37.1813
rwrist 2.41394
rhand -19.3405 -48.9739
rfingers 7.12502
rthumb 6.9765 -78.839
lclavicle 3.13086e-015 -1.43125e-014
lhumerus -39.1856 8.66214 78.5212
lradius 32.9485
lwrist 16.6448
lhand -34.089 -28.4411
lfingers 7.12502
lthumb -7.26552 1.41417
rfemur -6.75631 18.8323 14.0146
rtibia 2.08485
rfoot -4.18418 -34.6259
rtoes 1.76127
lfemur -15.9708 -12.0748 -7.07925
ltibia 13.6916
lfoot -7.69057 24.2099
ltoes -0.792444
63
root 1.17557 17.6879 0.0555886 14.2558 0.876283 -3.68467
lowerback -10.6925 -0.731592 6.68571
upperback -6.12836 -1.57962 1.58973
thorax -0.55969 -0.937276 -2.25564
lowerneck -15.127 -1.88766 -6.94844
upperneck 25.312 -1.69375 3.2012
head 10.7346 -1.06446 2.09804
rclavicle -7.33018e-015 -8.34896e-015
rhumerus -43.3591 -4.14142 -76.2731
rradius 37.1555
rwrist 2.4972
rhand -19.1576 -49.3272
rfingers 7.12502
rthumb 7.15299 -79.1864
lclavicle -7.33018e-015 -8.34896e-015
lhumerus -39.1587 8.55731 78.5682
lradius 33.004
lwrist 16.6936
lhand -34.1251 -28.2716
lfingers 7.12502
lthumb -7.30034 1.58243
rfemur -6.98301 18.8796 13.9652
rtibia 2.50148
rfoot -4.44986 -34.6394
rtoes 1.79543
lfemur -15.947 -12.0905 -7.10289
ltibia 13.6436
lfoot -7.62424 24.2382
ltoes -0.777407
64
root 1.17517 17.688 0.0554472 14.2565 0.84745 -3.64835
lowerback -10.6741 -0.748934 6.63533
upperback -6.06925 -1.59959 1.57912
thorax -0.507558 -0.94342 -2.24113
lowerneck -15.3706 -1.85864 -6.87834
upperneck 25.3822 -1.65067 3.1909
head 10.8047 -1.03848 2.08889
rclavicle 2.18166e-014 -9.54166e-015
rhumerus -43.1966 -4.15672 -76.3034
rradius 37.1915
rwrist 2.5704
rhand -18.4599 -50.5503
rfingers 7.12502
rthumb 7.82648 -80.3854
lclavicle 2.18166e-014 -9.54166e-015
lhumerus -39.0638 8.55187 78.5677
lradius 33.0502
lwrist 16.7496
lhand -34.1281 -28.0799
lfingers 7.12502
lthumb -7.30318 1.77411
rfemur -7.25338 18.9358 13.8915
rtibia 2.96336
rfoot -4.45493 -34.6819
rtoes 1.73671
lfemur -15.8844 -12.0839 -7.15377
ltibia 13.5795
lfoot -7.65671 24.2222
ltoes -0.530762
65
root 1.17288 17.6877 0.0544975 14.2657 0.764739 -3.62579
lowerback -10.6429 -0.719353 6.56457
upperback -6.1964 -1.54532 1.58691
thorax -0.650561 -0.921299 -2.18547
lowerneck -14.9328 -1.83769 -6.94774
upperneck 25.3244 -1.63882 3.20317
head 10.6978 -1.04068 2.10664
rclavicle -2.96686e-014 3.26007e-014
rhumerus -43.4549 -4.08113 -76.2396
rradius 37.3004
rwrist 2.47672
rhand -17.9754 -51.4957
rfingers 7.12502
rthumb 8.29408 -81.3129
lclavicle -2.96686e-014 3.26007e-014
lhumerus -39.2407 8.59338 78.5324
lradius 32.9523
lwrist 16.6056
lhand -34.1309 -27.9323
lfingers 7.12502
lthumb -7.30588 1.9216
rfemur -7.46419 19.0362 13.8238
rtibia 3.24358
rfoot -4.38848 -34.7382
rtoes 1.63506
lfemur -15.8274 -12.0606 -7.18779
ltibia 13.5316
lfoot -7.70802 24.2644
ltoes -0.460949
